<?xml version="1.0" standalone="no"?>
<!DOCTYPE svg PUBLIC "-//W3C//DTD SVG 20010904//EN"
 "http://www.w3.org/TR/2001/REC-SVG-20010904/DTD/svg10.dtd">
<svg version="1.0" xmlns="http://www.w3.org/2000/svg"
 width="1442.000000pt" height="1442.000000pt" viewBox="0 0 1442.000000 1442.000000"
 preserveAspectRatio="xMidYMid meet">
<metadata>
Created by potrace 1.14, written by Peter Selinger 2001-2017
</metadata>
<g transform="translate(0.000000,1442.000000) scale(0.100000,-0.100000)"
fill="#000000" stroke="none">
<path d="M2537 10713 c-9 -17 -41 -118 -39 -125 1 -5 -2 -8 -8 -8 -5 0 -10 -6
-10 -14 0 -8 -5 -27 -12 -43 -14 -33 -13 -30 -23 -68 -4 -16 -17 -50 -27 -75
-11 -25 -22 -52 -24 -60 -5 -20 -62 -180 -73 -205 -5 -11 -14 -33 -19 -50 -6
-16 -45 -125 -86 -241 -42 -116 -76 -216 -76 -222 0 -7 -4 -12 -10 -12 -5 0
-9 -3 -8 -7 3 -11 -53 -176 -63 -188 -5 -5 -9 -15 -9 -23 0 -8 -6 -28 -14 -45
-7 -18 -26 -68 -41 -112 -15 -44 -31 -89 -36 -100 -5 -11 -20 -54 -34 -95 -15
-41 -29 -82 -32 -90 -3 -8 -7 -19 -9 -25 -2 -10 -49 -136 -61 -165 -3 -8 -7
-19 -9 -25 -1 -5 -26 -73 -54 -150 -28 -77 -62 -174 -76 -215 -15 -41 -32 -88
-39 -105 -7 -16 -29 -77 -49 -135 -20 -58 -40 -114 -45 -125 -18 -38 -76 -210
-72 -214 1 -2 -1 -7 -6 -10 -8 -6 -49 -114 -58 -154 -2 -9 -7 -22 -11 -28 -6
-10 -70 -185 -79 -219 -6 -19 -93 -258 -104 -285 -5 -11 -22 -58 -39 -105 -16
-47 -47 -132 -68 -190 -21 -58 -39 -109 -40 -115 -1 -5 -8 -23 -15 -40 -7 -16
-13 -32 -14 -35 -1 -3 -4 -12 -8 -20 -3 -8 -11 -33 -18 -55 -6 -22 -16 -49
-22 -60 -6 -11 -12 -25 -13 -32 -1 -6 -16 -49 -33 -95 -16 -46 -63 -175 -105
-288 -41 -113 -88 -243 -106 -290 -17 -47 -32 -89 -33 -95 -2 -9 -37 -108 -55
-155 -3 -8 -6 -17 -6 -20 -1 -3 -11 -30 -23 -60 -20 -51 -130 -352 -137 -375
-3 -10 -8 -25 -31 -85 -7 -19 -25 -67 -39 -106 -15 -39 -29 -79 -31 -90 -2
-10 -34 -100 -71 -199 -36 -99 -77 -211 -91 -250 -13 -38 -28 -79 -33 -90 -11
-25 -51 -137 -55 -150 -2 -11 -10 -34 -30 -85 -8 -19 -28 -75 -46 -125 -17
-49 -36 -101 -42 -115 -6 -14 -11 -31 -13 -38 -2 -10 179 -12 894 -10 l895 3
9 30 c5 17 11 36 14 43 2 7 4 16 6 20 1 4 12 36 26 72 13 36 30 85 37 110 7
25 25 79 40 120 15 41 28 80 30 85 1 6 5 17 8 25 9 23 138 403 142 420 2 8 16
49 30 90 15 41 28 80 30 85 1 6 5 17 8 25 4 8 13 35 20 60 l13 45 89 2 c50 1
131 2 180 2 50 1 113 1 140 2 28 1 55 1 60 1 6 0 84 -1 175 0 91 0 176 -1 190
-2 14 -1 32 -1 40 -1 42 2 124 0 129 -4 4 -2 13 0 20 4 7 5 29 5 50 1 21 -4
47 -3 59 1 12 5 24 4 27 -2 4 -5 13 -6 22 -1 8 5 32 6 52 2 21 -4 47 -3 59 1
12 5 24 4 27 -2 4 -5 13 -6 22 -1 8 5 32 6 52 2 21 -4 47 -3 59 1 12 5 24 4
27 -1 4 -7 13 -7 24 0 10 5 20 7 23 5 4 -4 43 -6 103 -4 30 1 298 1 315 0 8
-1 38 0 65 0 28 1 55 1 60 1 6 0 120 0 255 0 135 0 256 -1 270 -1 23 -1 42
-21 46 -49 2 -8 6 -21 10 -30 4 -9 8 -24 10 -32 2 -8 7 -23 12 -35 5 -11 15
-38 21 -60 7 -22 16 -49 21 -60 8 -19 42 -120 46 -140 2 -5 12 -34 23 -63 11
-29 20 -54 20 -55 0 -2 0 -2 41 -127 18 -52 66 -194 107 -315 41 -120 77 -227
78 -237 2 -10 7 -23 10 -28 4 -7 321 -10 910 -10 l904 0 -23 68 c-13 37 -30
85 -39 107 -8 22 -18 49 -23 60 -4 11 -8 22 -8 25 -2 8 -37 103 -46 125 -5 11
-28 74 -50 140 -23 66 -48 134 -56 152 -8 17 -14 34 -14 38 0 7 -122 348 -140
390 -4 11 -13 36 -20 55 -7 19 -16 44 -22 55 -5 12 -10 27 -12 35 -2 8 -6 24
-10 35 -5 11 -12 34 -18 50 -6 17 -16 44 -23 60 -7 17 -34 91 -60 165 -25 74
-51 144 -56 155 -6 12 -11 27 -13 35 -2 8 -8 29 -15 45 -7 17 -22 57 -33 90
-11 33 -26 74 -33 90 -13 33 -20 54 -70 195 -37 107 -92 257 -102 280 -3 8 -7
20 -9 25 -1 6 -12 34 -23 63 -11 29 -20 56 -21 60 -1 4 -8 22 -16 41 -8 18
-14 36 -14 39 0 6 -94 267 -110 307 -15 38 -23 60 -27 78 -1 10 -10 31 -18 48
-9 16 -13 29 -9 29 4 0 2 6 -3 13 -6 6 -16 30 -23 52 -7 22 -15 45 -19 50 -3
6 -6 16 -7 23 -2 8 -6 21 -10 30 -4 9 -8 19 -8 22 -1 3 -6 19 -13 35 -13 34
-20 57 -22 68 0 4 -8 21 -16 37 -9 17 -13 30 -10 30 3 0 1 10 -6 21 -11 22
-59 149 -85 229 -15 46 -30 82 -45 112 -5 10 -9 26 -9 36 0 10 -3 22 -7 26 -5
4 -8 11 -8 14 0 6 -13 43 -35 97 -4 11 -13 36 -20 55 -7 19 -16 44 -20 55 -5
11 -32 85 -60 165 -28 80 -56 159 -63 175 -6 17 -12 32 -13 35 0 3 -3 12 -7
20 -3 8 -15 42 -26 75 -12 33 -26 69 -31 80 -5 11 -24 65 -44 120 -19 55 -53
152 -76 215 -23 63 -46 126 -50 140 -5 14 -23 63 -41 110 -17 47 -34 95 -36
108 -3 12 -9 25 -14 28 -5 3 -9 16 -9 29 0 13 -4 26 -9 29 -4 3 -14 27 -21 53
-7 27 -16 53 -20 58 -4 6 -13 28 -19 50 -7 22 -16 49 -21 60 -9 19 -63 170
-124 345 -15 41 -30 84 -35 95 -11 23 -24 58 -25 65 -1 3 -9 25 -18 50 -34 92
-110 305 -112 315 -2 6 -7 21 -13 35 -6 14 -22 57 -36 95 -14 39 -36 102 -50
140 -14 39 -34 95 -45 125 l-20 55 -990 3 c-545 1 -993 -1 -995 -5z m994
-1908 c2 -21 5 -32 29 -90 4 -11 15 -42 23 -70 16 -51 143 -428 154 -455 3 -8
7 -20 8 -26 3 -10 38 -116 53 -154 3 -8 6 -17 7 -20 0 -3 16 -50 35 -105 19
-55 35 -104 36 -110 4 -16 36 -108 45 -130 5 -11 38 -108 74 -215 35 -107 123
-368 195 -580 73 -212 133 -392 135 -400 2 -8 4 -16 4 -17 1 -2 0 -5 -1 -6 -2
-2 2 -10 9 -18 6 -8 14 -26 17 -41 2 -14 9 -35 15 -46 5 -10 12 -30 14 -43 l5
-24 -134 1 c-74 1 -141 4 -149 8 -8 3 -15 2 -15 -2 0 -4 -13 -7 -30 -7 -16 0
-30 2 -30 5 0 3 -16 5 -35 5 -19 0 -35 -2 -35 -5 0 -3 -13 -5 -30 -5 -16 0
-30 3 -30 6 0 3 -22 3 -50 -1 -27 -3 -56 -3 -64 2 -8 5 -17 4 -21 -1 -4 -7
-15 -7 -30 -1 -14 5 -25 6 -25 2 0 -8 -223 -7 -245 2 -8 3 -17 1 -20 -4 -3 -6
-15 -6 -30 0 -14 5 -25 6 -25 2 0 -8 -68 -8 -76 1 -3 3 -17 2 -30 -3 -13 -5
-25 -6 -28 -2 -3 5 -30 5 -61 2 -31 -3 -58 -3 -61 2 -3 4 -15 3 -28 -2 -13 -5
-27 -6 -30 -3 -7 7 -76 10 -76 3 0 -3 -13 -5 -30 -5 -16 0 -30 3 -30 7 0 3 -8
4 -17 2 -33 -8 -153 -9 -153 -2 0 4 -11 3 -24 -2 -26 -10 -82 2 -79 16 1 5 76
232 168 504 91 272 168 502 170 510 2 8 18 56 35 105 17 50 32 97 35 105 7 28
157 475 165 495 7 17 41 118 45 135 1 3 4 12 8 20 6 16 81 242 83 250 0 3 3
12 6 20 12 31 70 204 73 214 1 6 7 24 14 40 6 16 13 36 15 45 2 9 8 29 14 44
7 16 12 35 12 43 0 19 20 18 21 -1z"/>
<path d="M7351 10578 c28 -79 62 -177 76 -218 14 -41 30 -81 35 -87 6 -7 7
-13 3 -13 -4 0 -2 -7 5 -15 7 -8 10 -15 7 -15 -4 0 2 -20 13 -45 11 -25 17
-45 13 -45 -3 0 0 -7 7 -15 7 -8 9 -15 5 -15 -4 0 -3 -6 2 -12 6 -7 21 -44 33
-83 12 -38 25 -74 29 -80 3 -5 6 -14 7 -20 1 -5 16 -47 33 -92 17 -46 28 -83
25 -83 -4 0 -2 -6 4 -12 5 -7 21 -47 35 -88 14 -41 47 -133 72 -205 26 -71 73
-204 105 -295 32 -91 77 -217 100 -280 22 -63 48 -135 56 -160 8 -25 19 -54
24 -65 4 -11 15 -40 23 -65 8 -25 38 -110 67 -190 28 -80 53 -149 54 -155 2
-5 6 -17 9 -25 4 -8 27 -73 52 -145 26 -71 51 -142 57 -157 5 -15 10 -30 9
-33 -1 -3 6 -19 14 -35 9 -17 13 -30 11 -30 -3 0 6 -25 19 -55 14 -30 25 -58
25 -63 0 -4 9 -34 21 -67 25 -70 54 -152 65 -180 4 -11 8 -24 10 -30 1 -5 19
-55 39 -110 20 -55 37 -104 39 -110 2 -5 6 -17 9 -25 5 -14 31 -86 99 -280 16
-47 36 -103 45 -125 8 -22 23 -65 33 -95 10 -30 28 -82 40 -115 12 -33 44
-123 71 -200 27 -77 52 -147 56 -155 3 -8 7 -19 9 -25 1 -5 18 -55 38 -110 20
-55 45 -127 56 -160 11 -33 25 -68 30 -77 6 -10 10 -27 10 -37 0 -11 4 -22 9
-25 5 -3 11 -16 14 -28 2 -13 19 -61 35 -108 77 -211 103 -286 106 -295 2 -5
6 -19 10 -30 5 -11 12 -31 16 -45 4 -14 12 -34 16 -45 4 -11 8 -22 8 -25 1 -3
10 -27 20 -55 10 -27 29 -81 43 -120 14 -38 28 -79 33 -90 4 -11 22 -63 40
-115 18 -52 36 -104 40 -115 5 -11 13 -33 18 -50 6 -16 26 -74 46 -127 19 -54
33 -98 29 -98 -3 0 -1 -6 5 -12 5 -7 22 -47 36 -88 14 -41 39 -113 56 -160 17
-47 38 -105 46 -130 8 -25 19 -54 24 -65 16 -37 82 -230 83 -243 0 -10 219
-12 1075 -10 l1075 3 42 120 c23 66 45 127 48 135 3 8 24 69 47 135 22 66 47
136 55 155 8 19 44 121 80 225 36 105 69 199 74 210 13 30 47 131 50 148 0 4
8 21 16 37 9 17 13 30 10 30 -3 0 0 10 7 23 6 12 13 27 14 32 3 13 112 324
123 350 5 11 21 56 36 100 15 44 29 87 33 95 3 8 6 17 7 20 1 3 5 13 9 22 4 9
9 22 10 30 2 7 7 24 13 38 6 14 25 68 43 120 18 52 37 106 43 120 6 14 11 30
13 35 3 14 59 171 106 300 22 61 42 118 43 127 2 10 10 32 18 50 8 18 24 60
35 93 11 33 38 110 60 172 22 62 37 115 34 118 -3 3 0 5 6 5 7 0 12 6 12 13 0
6 21 68 46 137 24 69 46 130 47 135 9 33 31 91 37 100 4 6 11 26 15 45 4 19
11 41 16 50 5 8 15 35 23 60 8 25 31 90 51 145 20 55 38 107 40 115 2 8 15 43
29 78 13 34 22 62 19 62 -3 0 -1 6 4 13 10 12 23 53 22 71 -1 5 3 12 8 15 4 3
31 74 60 156 28 83 70 202 93 265 22 63 54 153 71 200 16 47 32 92 36 100 3 8
8 23 10 33 1 10 10 31 18 48 9 16 13 29 10 29 -3 0 1 13 10 30 8 16 16 33 16
37 2 10 2 11 38 111 16 45 27 82 24 82 -3 0 -1 6 4 13 6 6 20 39 31 72 12 33
33 94 47 135 14 41 30 84 34 95 5 11 21 56 36 100 14 44 29 87 32 95 4 8 7 17
8 20 1 3 5 12 8 20 7 16 36 98 41 115 2 6 6 17 9 25 3 8 34 94 68 190 33 96
88 252 121 345 33 94 82 233 109 310 27 77 53 149 58 160 5 11 19 48 30 83
l20 62 -906 -2 -905 -3 -13 -37 c-7 -21 -10 -38 -8 -38 3 0 1 -6 -4 -12 -6 -7
-14 -26 -18 -43 -10 -34 -10 -35 -18 -55 -3 -8 -11 -33 -18 -55 -6 -22 -16
-46 -22 -52 -5 -7 -7 -13 -3 -13 3 0 -4 -24 -15 -52 -11 -29 -20 -54 -20 -55
1 -2 1 -4 0 -5 0 -2 -2 -10 -4 -18 -2 -8 -31 -96 -65 -195 -33 -99 -63 -187
-65 -195 -5 -21 -104 -322 -112 -340 -3 -8 -7 -20 -8 -26 -3 -12 -129 -393
-220 -664 -31 -91 -58 -172 -60 -180 -2 -8 -4 -15 -5 -15 -1 0 -3 -7 -5 -15
-1 -8 -54 -168 -116 -355 -62 -187 -113 -342 -114 -345 -1 -7 -35 -112 -42
-130 -3 -8 -7 -19 -9 -25 -1 -5 -39 -120 -84 -255 -45 -135 -83 -249 -84 -255
-2 -5 -6 -17 -9 -25 -3 -8 -51 -154 -107 -325 -56 -170 -104 -317 -107 -325
-4 -8 -7 -17 -7 -20 -2 -7 -117 -362 -124 -380 -3 -8 -6 -17 -6 -20 -1 -3 -4
-9 -8 -15 -6 -9 -31 -97 -29 -102 0 -2 -8 -23 -19 -48 -11 -25 -19 -48 -19
-50 0 -8 -70 -227 -81 -250 -5 -11 -28 -80 -51 -152 -23 -73 -45 -133 -49
-133 -5 0 -47 110 -55 145 -1 5 -5 17 -8 25 -8 21 -57 172 -62 190 -2 8 -4 16
-5 18 -2 1 -3 5 -4 10 -3 14 -218 668 -229 697 -6 17 -12 32 -13 35 -5 28 -19
67 -27 78 -5 6 -7 12 -3 12 3 0 -3 23 -14 50 -11 28 -17 50 -14 50 4 0 2 6 -3
13 -8 9 -45 116 -48 137 -1 7 -75 231 -82 250 -4 8 -7 17 -8 20 -1 3 -4 12 -7
20 -4 8 -21 62 -39 120 -17 58 -35 110 -38 115 -3 6 -6 15 -8 20 -7 33 -14 56
-32 103 -19 51 -21 56 -26 77 -2 6 -24 74 -50 152 -25 77 -48 147 -49 155 -2
7 -8 26 -15 42 -6 16 -13 36 -15 45 -2 9 -6 23 -9 31 -8 18 -78 231 -81 245
-4 18 -67 210 -76 230 -5 11 -11 34 -15 50 -4 17 -12 44 -20 60 -11 27 -59
173 -242 740 -31 94 -59 179 -63 190 -8 19 -43 124 -45 135 -1 3 -30 93 -65
200 -35 107 -65 197 -66 200 0 3 -4 13 -8 22 -4 9 -9 23 -10 32 -1 8 -5 19 -9
22 -4 4 -7 17 -7 29 0 11 -4 25 -8 30 -7 8 -31 77 -37 105 -1 8 -36 113 -42
130 -3 8 -7 20 -9 25 -1 6 -18 57 -37 115 l-35 105 -910 3 -911 2 50 -142z"/>
</g>
</svg>
